<svg xmlns="http://www.w3.org/2000/svg" version="1.1" xmlns:xlink="http://www.w3.org/1999/xlink" xmlns:svgjs="http://svgjs.dev/svgjs" viewBox="0 0 800 800"><g transform="matrix(1,0,0,1,0,0)"><circle r="50" cx="684" cy="684" stroke-width="4" stroke="#616161" fill="none" opacity="0.1" transform="rotate(100, 400, 400)"></circle><circle r="55.88235294117647" cx="667.2941176470588" cy="667.2941176470588" stroke-width="4.705882352941177" stroke="#6c6c6c" fill="none" opacity="0.15294117647058825" transform="rotate(94.11764705882354, 400, 400)"></circle><circle r="61.76470588235294" cx="650.5882352941177" cy="650.5882352941177" stroke-width="5.411764705882353" stroke="#767676" fill="none" opacity="0.20588235294117646" transform="rotate(88.23529411764706, 400, 400)"></circle><circle r="67.64705882352942" cx="633.8823529411765" cy="633.8823529411765" stroke-width="6.117647058823529" stroke="#7f7f7f" fill="none" opacity="0.2588235294117647" transform="rotate(82.35294117647058, 400, 400)"></circle><circle r="73.52941176470588" cx="617.1764705882352" cy="617.1764705882352" stroke-width="6.8235294117647065" stroke="#888888" fill="none" opacity="0.31176470588235294" transform="rotate(76.47058823529412, 400, 400)"></circle><circle r="79.41176470588235" cx="600.4705882352941" cy="600.4705882352941" stroke-width="7.529411764705882" stroke="#909090" fill="none" opacity="0.3647058823529412" transform="rotate(70.58823529411765, 400, 400)"></circle><circle r="85.29411764705883" cx="583.7647058823529" cy="583.7647058823529" stroke-width="8.235294117647058" stroke="#989898" fill="none" opacity="0.41764705882352937" transform="rotate(64.70588235294117, 400, 400)"></circle><circle r="91.1764705882353" cx="567.0588235294117" cy="567.0588235294117" stroke-width="8.941176470588236" stroke="#9f9f9f" fill="none" opacity="0.47058823529411764" transform="rotate(58.8235294117647, 400, 400)"></circle><circle r="97.05882352941177" cx="550.3529411764706" cy="550.3529411764706" stroke-width="9.647058823529413" stroke="#a6a6a6" fill="none" opacity="0.5235294117647059" transform="rotate(52.94117647058823, 400, 400)"></circle><circle r="102.94117647058823" cx="533.6470588235294" cy="533.6470588235294" stroke-width="10.352941176470589" stroke="#adadad" fill="none" opacity="0.5764705882352941" transform="rotate(47.05882352941176, 400, 400)"></circle><circle r="108.82352941176471" cx="516.9411764705883" cy="516.9411764705883" stroke-width="11.058823529411764" stroke="#b3b3b3" fill="none" opacity="0.6294117647058823" transform="rotate(41.17647058823529, 400, 400)"></circle><circle r="114.70588235294119" cx="500.2352941176471" cy="500.2352941176471" stroke-width="11.764705882352942" stroke="#bababa" fill="none" opacity="0.6823529411764706" transform="rotate(35.29411764705881, 400, 400)"></circle><circle r="120.58823529411765" cx="483.52941176470586" cy="483.52941176470586" stroke-width="12.470588235294118" stroke="#c0c0c0" fill="none" opacity="0.7352941176470588" transform="rotate(29.411764705882348, 400, 400)"></circle><circle r="126.47058823529412" cx="466.8235294117647" cy="466.8235294117647" stroke-width="13.176470588235295" stroke="#c5c5c5" fill="none" opacity="0.788235294117647" transform="rotate(23.529411764705884, 400, 400)"></circle><circle r="132.3529411764706" cx="450.11764705882354" cy="450.11764705882354" stroke-width="13.882352941176471" stroke="#cbcbcb" fill="none" opacity="0.8411764705882353" transform="rotate(17.647058823529406, 400, 400)"></circle><circle r="138.23529411764707" cx="433.4117647058823" cy="433.4117647058823" stroke-width="14.588235294117649" stroke="#d1d1d1" fill="none" opacity="0.8941176470588235" transform="rotate(11.764705882352928, 400, 400)"></circle><circle r="144.11764705882354" cx="416.70588235294116" cy="416.70588235294116" stroke-width="15.294117647058824" stroke="#d6d6d6" fill="none" opacity="0.9470588235294117" transform="rotate(5.882352941176464, 400, 400)"></circle><circle r="150" cx="400" cy="400" stroke-width="16" stroke="#dbdbdb" fill="none" opacity="1" transform="rotate(0, 400, 400)"></circle></g></svg>